<svg width="137" height="136" viewBox="0 0 137 136" fill="none" xmlns="http://www.w3.org/2000/svg">
<circle cx="68.6152" cy="68" r="68" fill="#1ED491"/>
<path d="M53.4106 31.6635C53.6397 32.566 53.763 33.5267 53.763 34.5384V79.1728C53.763 81.9072 55.9796 84.1238 58.714 84.1238C61.4483 84.1238 63.665 81.9072 63.665 79.1728V79.1311C63.665 76.3971 65.8814 74.1806 68.6155 74.1806C71.3495 74.1806 73.566 76.3971 73.566 79.1311V79.1728C73.566 81.9072 75.7826 84.1238 78.517 84.1238C81.2513 84.1238 83.468 81.9072 83.468 79.1728V34.5385C83.468 33.5268 83.5913 32.5661 83.8203 31.6635H53.4106Z" fill="#1ED491"/>
<path fill-rule="evenodd" clip-rule="evenodd" d="M103.386 31.0903C101.56 31.0903 100.08 32.5706 100.08 34.3966V74.0326C100.08 91.4101 85.9927 105.497 68.6152 105.497C51.2377 105.497 37.1504 91.4101 37.1504 74.0326V37.7028H58.3548V74.6622C58.3548 80.3289 62.9485 84.9226 68.6152 84.9226C74.2819 84.9226 78.8756 80.3289 78.8756 74.6622V37.7028H86.1716V74.3474C86.1716 84.0435 78.3113 91.9037 68.6152 91.9037C58.9191 91.9037 51.0588 84.0435 51.0588 74.3474V47.9902C51.0588 46.1642 49.5786 44.6839 47.7526 44.6839C45.9266 44.6839 44.4463 46.1642 44.4463 47.9902V74.3474C44.4463 87.6955 55.2671 98.5162 68.6152 98.5162C81.9633 98.5162 92.7841 87.6954 92.7841 74.3474V34.3966C92.7841 32.5706 91.3038 31.0903 89.4778 31.0903H75.5694C73.7434 31.0903 72.2632 32.5706 72.2632 34.3966V74.6622C72.2632 76.6769 70.6299 78.3102 68.6152 78.3102C66.6005 78.3102 64.9672 76.6769 64.9672 74.6622V34.3966C64.9672 32.5706 63.487 31.0903 61.661 31.0903H33.8442C32.0182 31.0903 30.5379 32.5706 30.5379 34.3966V74.0326C30.5379 95.062 47.5857 112.11 68.6152 112.11C89.6447 112.11 106.692 95.062 106.692 74.0326V34.3966C106.692 32.5706 105.212 31.0903 103.386 31.0903Z" fill="black"/>
</svg>
