<svg width="136" height="136" viewBox="0 0 136 136" fill="none" xmlns="http://www.w3.org/2000/svg">
<rect width="136" height="136" rx="68" fill="black"/>
<path d="M66.1321 27.3681C66.1321 26.3364 65.2957 25.5 64.2639 25.5C63.2322 25.5 62.3958 26.3364 62.3958 27.3681V44.2097C62.3958 47.9961 57.8179 49.8923 55.1406 47.2149L43.2319 35.3062C42.5023 34.5767 41.3195 34.5767 40.5899 35.3062C39.8604 36.0358 39.8604 37.2186 40.5899 37.9482L49.837 47.1952C50.5665 47.9247 50.5665 49.1075 49.837 49.837C49.1075 50.5665 47.9247 50.5665 47.1952 49.837L37.9481 40.5899C37.2186 39.8604 36.0357 39.8604 35.3062 40.5899C34.5766 41.3195 34.5766 42.5023 35.3062 43.2319L47.2149 55.1406C49.8923 57.8179 47.9961 62.3958 44.2097 62.3958H27.3681C26.3364 62.3958 25.5 63.2322 25.5 64.2639C25.5 65.2957 26.3364 66.1321 27.3681 66.1321H40.4454C41.4771 66.1321 42.3134 66.9684 42.3134 68C42.3134 69.0316 41.4771 69.8679 40.4454 69.8679H27.3681C26.3364 69.8679 25.5 70.7043 25.5 71.7361C25.5 72.7678 26.3364 73.6042 27.3681 73.6042H44.2097C47.9961 73.6042 49.8923 78.182 47.2149 80.8594L35.306 92.7683C34.5765 93.4979 34.5765 94.6807 35.306 95.4102C36.0356 96.1398 37.2184 96.1398 37.948 95.4102L47.1946 86.1636C47.9241 85.4341 49.1069 85.4341 49.8364 86.1636C50.5659 86.8931 50.5659 88.0759 49.8364 88.8054L40.5897 98.0521C39.8601 98.7816 39.8601 99.9645 40.5897 100.694C41.3192 101.424 42.5021 101.424 43.2316 100.694L55.1406 88.785C57.818 86.1077 62.3958 88.0039 62.3958 91.7902V108.632C62.3958 109.664 63.2322 110.5 64.2639 110.5C65.2957 110.5 66.1321 109.664 66.1321 108.632V95.5546C66.1321 94.5229 66.9684 93.6866 68 93.6866C69.0316 93.6866 69.8679 94.5229 69.8679 95.5546V108.632C69.8679 109.664 70.7043 110.5 71.7361 110.5C72.7678 110.5 73.6042 109.664 73.6042 108.632V91.7903C73.6042 88.0039 78.1821 86.1077 80.8594 88.7851L92.7683 100.694C93.4979 101.424 94.6807 101.424 95.4102 100.694C96.1398 99.9644 96.1398 98.7816 95.4102 98.052L86.1636 88.8054C85.4341 88.0759 85.4341 86.8931 86.1636 86.1636C86.8931 85.4341 88.0759 85.4341 88.8054 86.1636L98.0521 95.4103C98.7816 96.1399 99.9645 96.1399 100.694 95.4103C101.424 94.6808 101.424 93.4979 100.694 92.7684L88.785 80.8594C86.1077 78.182 88.0039 73.6042 91.7902 73.6042H108.632C109.664 73.6042 110.5 72.7678 110.5 71.7361C110.5 70.7043 109.664 69.8679 108.632 69.8679H95.5549C94.5233 69.8679 93.687 69.0316 93.687 68C93.687 66.9684 94.5233 66.1321 95.5549 66.1321H108.632C109.664 66.1321 110.5 65.2957 110.5 64.2639C110.5 63.2322 109.664 62.3958 108.632 62.3958H91.7903C88.0039 62.3958 86.1077 57.8179 88.7851 55.1406L100.694 43.2319C101.423 42.5023 101.423 41.3195 100.694 40.5899C99.9642 39.8604 98.7814 39.8604 98.0518 40.5899L88.8048 49.837C88.0753 50.5665 86.8925 50.5665 86.163 49.837C85.4335 49.1075 85.4335 47.9247 86.163 47.1952L95.4101 37.9481C96.1396 37.2186 96.1396 36.0357 95.4101 35.3062C94.6805 34.5766 93.4977 34.5766 92.7681 35.3062L80.8594 47.2149C78.1821 49.8923 73.6042 47.9961 73.6042 44.2097V27.3681C73.6042 26.3364 72.7678 25.5 71.7361 25.5C70.7043 25.5 69.8679 26.3364 69.8679 27.3681V40.4451C69.8679 41.4767 69.0316 42.313 68 42.313C66.9684 42.313 66.1321 41.4767 66.1321 40.4451V27.3681Z" fill="#1ED491"/>
</svg>
