<svg width="113" height="40" viewBox="0 0 113 40" fill="none" xmlns="http://www.w3.org/2000/svg">
<path d="M19.121 0.87912C19.121 0.393596 18.7274 0 18.2418 0C17.7563 0 17.3627 0.393595 17.3627 0.87912V8.80459C17.3627 10.5864 15.2084 11.4787 13.9485 10.2188L8.34441 4.6147C8.00109 4.27138 7.44447 4.27138 7.10115 4.6147C6.75783 4.95801 6.75783 5.51464 7.10115 5.85796L11.4527 10.2095C11.796 10.5528 11.796 11.1094 11.4527 11.4527C11.1094 11.796 10.5528 11.796 10.2095 11.4527L5.85793 7.10113C5.51461 6.75782 4.95799 6.75782 4.61467 7.10113C4.27135 7.44445 4.27135 8.00108 4.61467 8.3444L10.2188 13.9485C11.4787 15.2084 10.5864 17.3627 8.80457 17.3627H0.87912C0.393596 17.3627 0 17.7563 0 18.2418C0 18.7274 0.393597 19.121 0.879121 19.121H7.03315C7.51862 19.121 7.91218 19.5145 7.91218 20C7.91218 20.4855 7.51862 20.879 7.03315 20.879H0.87912C0.393596 20.879 0 21.2726 0 21.7581C0 22.2437 0.393596 22.6373 0.879121 22.6373H8.80457C10.5864 22.6373 11.4787 24.7916 10.2188 26.0515L4.61459 31.6557C4.27128 31.999 4.27128 32.5556 4.61459 32.8989C4.95791 33.2423 5.51454 33.2423 5.85786 32.8989L10.2092 28.5476C10.5525 28.2043 11.1091 28.2043 11.4524 28.5476C11.7957 28.8909 11.7957 29.4475 11.4524 29.7908L7.10103 34.1422C6.75772 34.4855 6.75772 35.0421 7.10103 35.3854C7.44435 35.7287 8.00098 35.7287 8.3443 35.3854L13.9485 29.7812C15.2084 28.5213 17.3627 29.4136 17.3627 31.1954V39.1209C17.3627 39.6064 17.7563 40 18.2418 40C18.7274 40 19.121 39.6064 19.121 39.1209V32.9669C19.121 32.4814 19.5145 32.0878 20 32.0878C20.4855 32.0878 20.879 32.4814 20.879 32.9669V39.1209C20.879 39.6064 21.2726 40 21.7581 40C22.2437 40 22.6373 39.6064 22.6373 39.1209V31.1954C22.6373 29.4136 24.7916 28.5213 26.0515 29.7812L31.6557 35.3854C31.999 35.7287 32.5556 35.7287 32.8989 35.3854C33.2423 35.0421 33.2423 34.4855 32.8989 34.1421L28.5476 29.7908C28.2043 29.4475 28.2043 28.8909 28.5476 28.5476C28.8909 28.2043 29.4475 28.2043 29.7908 28.5476L34.1422 32.899C34.4855 33.2423 35.0421 33.2423 35.3854 32.899C35.7287 32.5557 35.7287 31.999 35.3854 31.6557L29.7812 26.0515C28.5213 24.7916 29.4136 22.6373 31.1954 22.6373H39.1209C39.6064 22.6373 40 22.2437 40 21.7581C40 21.2726 39.6064 20.879 39.1209 20.879H32.967C32.4816 20.879 32.088 20.4855 32.088 20C32.088 19.5145 32.4816 19.121 32.967 19.121H39.1209C39.6064 19.121 40 18.7274 40 18.2418C40 17.7563 39.6064 17.3627 39.1209 17.3627H31.1954C29.4136 17.3627 28.5213 15.2084 29.7812 13.9485L35.3853 8.34441C35.7286 8.0011 35.7286 7.44447 35.3853 7.10115C35.042 6.75783 34.4854 6.75783 34.142 7.10115L29.7905 11.4527C29.4472 11.796 28.8906 11.796 28.5473 11.4527C28.204 11.1094 28.204 10.5528 28.5473 10.2095L32.8989 5.85793C33.2422 5.51462 33.2422 4.95799 32.8989 4.61467C32.5555 4.27135 31.9989 4.27135 31.6556 4.61467L26.0515 10.2188C24.7916 11.4787 22.6373 10.5864 22.6373 8.80457V0.87912C22.6373 0.393596 22.2437 0 21.7581 0C21.2726 0 20.879 0.393595 20.879 0.87912V7.03297C20.879 7.51844 20.4855 7.912 20 7.912C19.5145 7.912 19.121 7.51844 19.121 7.03297V0.87912Z" fill="#1ED491"/>
<path d="M55.4552 22.1102H57.9571L60.1305 11.9003H66.3221L62.8852 28.0996H48L51.437 11.9003H57.6286L55.4552 22.1102Z" fill="black"/>
<path d="M66.3139 17.8645L67.5774 11.9003H77.1302L80.7441 16.3482L80.7188 16.4745L74.8305 22.0849H79.5311L78.2422 28.0996H64.1405L65.1008 23.5254L71.0144 17.8645H66.3139Z" fill="black"/>
<path d="M93.4912 28.0996H79.5159L80.7795 22.1102H88.3358L86.6678 20.0884L86.7184 19.9115L89.2456 17.8645H81.6893L82.9528 11.9003H96.9282L95.5635 18.3952L93.6176 20.0126L94.8812 21.6047L93.4912 28.0996Z" fill="black"/>
<path d="M96.0068 22.1102H100.707L97.2198 16.4745L98.1802 11.9003H112.282L111.018 17.8898H106.318L109.805 23.5254V23.6265L104.296 28.0996H94.7432L96.0068 22.1102Z" fill="black"/>
</svg>
